<svg width="80" height="27" viewBox="0 0 80 27" fill="none" xmlns="http://www.w3.org/2000/svg">
<rect width="80" height="27" rx="4" fill="#EA4B48"/>
<path d="M12.172 18.098C11.528 18.098 10.9493 17.986 10.436 17.762C9.932 17.5287 9.53533 17.2113 9.246 16.81C8.95667 16.3993 8.80733 15.928 8.798 15.396H10.156C10.2027 15.8533 10.3893 16.2407 10.716 16.558C11.052 16.866 11.5373 17.02 12.172 17.02C12.7787 17.02 13.2547 16.8707 13.6 16.572C13.9547 16.264 14.132 15.872 14.132 15.396C14.132 15.0227 14.0293 14.7193 13.824 14.486C13.6187 14.2527 13.362 14.0753 13.054 13.954C12.746 13.8327 12.3307 13.702 11.808 13.562C11.164 13.394 10.646 13.226 10.254 13.058C9.87133 12.89 9.54 12.6287 9.26 12.274C8.98933 11.91 8.854 11.4247 8.854 10.818C8.854 10.286 8.98933 9.81467 9.26 9.404C9.53067 8.99333 9.90867 8.676 10.394 8.452C10.8887 8.228 11.4533 8.116 12.088 8.116C13.0027 8.116 13.7493 8.34467 14.328 8.802C14.916 9.25933 15.2473 9.866 15.322 10.622H13.922C13.8753 10.2487 13.6793 9.922 13.334 9.642C12.9887 9.35267 12.5313 9.208 11.962 9.208C11.43 9.208 10.996 9.348 10.66 9.628C10.324 9.89867 10.156 10.2813 10.156 10.776C10.156 11.1307 10.254 11.42 10.45 11.644C10.6553 11.868 10.9027 12.0407 11.192 12.162C11.4907 12.274 11.906 12.4047 12.438 12.554C13.082 12.7313 13.6 12.9087 13.992 13.086C14.384 13.254 14.72 13.52 15 13.884C15.28 14.2387 15.42 14.724 15.42 15.34C15.42 15.816 15.294 16.264 15.042 16.684C14.79 17.104 14.4167 17.4447 13.922 17.706C13.4273 17.9673 12.844 18.098 12.172 18.098ZM16.8188 14.136C16.8188 13.352 16.9775 12.666 17.2948 12.078C17.6121 11.4807 18.0461 11.0187 18.5968 10.692C19.1568 10.3653 19.7775 10.202 20.4588 10.202C21.1308 10.202 21.7141 10.3467 22.2088 10.636C22.7035 10.9253 23.0721 11.2893 23.3148 11.728V10.328H24.6028V18H23.3148V16.572C23.0628 17.02 22.6848 17.3933 22.1808 17.692C21.6861 17.9813 21.1075 18.126 20.4448 18.126C19.7635 18.126 19.1475 17.958 18.5968 17.622C18.0461 17.286 17.6121 16.8147 17.2948 16.208C16.9775 15.6013 16.8188 14.9107 16.8188 14.136ZM23.3148 14.15C23.3148 13.5713 23.1981 13.0673 22.9648 12.638C22.7315 12.2087 22.4141 11.882 22.0128 11.658C21.6208 11.4247 21.1868 11.308 20.7108 11.308C20.2348 11.308 19.8008 11.42 19.4088 11.644C19.0168 11.868 18.7041 12.1947 18.4708 12.624C18.2375 13.0533 18.1208 13.5573 18.1208 14.136C18.1208 14.724 18.2375 15.2373 18.4708 15.676C18.7041 16.1053 19.0168 16.4367 19.4088 16.67C19.8008 16.894 20.2348 17.006 20.7108 17.006C21.1868 17.006 21.6208 16.894 22.0128 16.67C22.4141 16.4367 22.7315 16.1053 22.9648 15.676C23.1981 15.2373 23.3148 14.7287 23.3148 14.15ZM28.0297 7.64V18H26.7557V7.64H28.0297ZM37.201 13.87C37.201 14.1127 37.187 14.3693 37.159 14.64H31.027C31.0737 15.396 31.3304 15.9887 31.797 16.418C32.273 16.838 32.847 17.048 33.519 17.048C34.0697 17.048 34.527 16.922 34.891 16.67C35.2644 16.4087 35.5257 16.0633 35.675 15.634H37.047C36.8417 16.3713 36.431 16.9733 35.815 17.44C35.199 17.8973 34.4337 18.126 33.519 18.126C32.791 18.126 32.1377 17.9627 31.559 17.636C30.9897 17.3093 30.5417 16.8473 30.215 16.25C29.8884 15.6433 29.725 14.9433 29.725 14.15C29.725 13.3567 29.8837 12.6613 30.201 12.064C30.5184 11.4667 30.9617 11.0093 31.531 10.692C32.1097 10.3653 32.7724 10.202 33.519 10.202C34.247 10.202 34.891 10.3607 35.451 10.678C36.011 10.9953 36.4404 11.434 36.739 11.994C37.047 12.5447 37.201 13.17 37.201 13.87ZM35.885 13.604C35.885 13.1187 35.7777 12.7033 35.563 12.358C35.3484 12.0033 35.0544 11.7373 34.681 11.56C34.317 11.3733 33.911 11.28 33.463 11.28C32.819 11.28 32.2684 11.4853 31.811 11.896C31.363 12.3067 31.1064 12.876 31.041 13.604H35.885Z" fill="white"/>
<path d="M49.42 9.166H44.73V11.952C44.926 11.6907 45.2153 11.4713 45.598 11.294C45.99 11.1167 46.4053 11.028 46.844 11.028C47.628 11.028 48.2627 11.196 48.748 11.532C49.2427 11.868 49.5927 12.2927 49.798 12.806C50.0127 13.3193 50.12 13.8607 50.12 14.43C50.12 15.1207 49.9847 15.7367 49.714 16.278C49.4527 16.81 49.056 17.23 48.524 17.538C48.0013 17.846 47.3573 18 46.592 18C45.5747 18 44.758 17.748 44.142 17.244C43.526 16.74 43.1573 16.0727 43.036 15.242H44.59C44.6927 15.6807 44.9213 16.0307 45.276 16.292C45.6307 16.544 46.074 16.67 46.606 16.67C47.2687 16.67 47.7633 16.4693 48.09 16.068C48.426 15.6667 48.594 15.1347 48.594 14.472C48.594 13.8 48.426 13.2867 48.09 12.932C47.754 12.568 47.2593 12.386 46.606 12.386C46.1487 12.386 45.7613 12.5027 45.444 12.736C45.136 12.96 44.912 13.268 44.772 13.66H43.26V7.766H49.42V9.166ZM51.7814 12.764C51.7814 11.1493 52.0521 9.88933 52.5934 8.984C53.1441 8.06933 54.0867 7.612 55.4214 7.612C56.7561 7.612 57.6941 8.06933 58.2354 8.984C58.7861 9.88933 59.0614 11.1493 59.0614 12.764C59.0614 14.3973 58.7861 15.676 58.2354 16.6C57.6941 17.5147 56.7561 17.972 55.4214 17.972C54.0867 17.972 53.1441 17.5147 52.5934 16.6C52.0521 15.676 51.7814 14.3973 51.7814 12.764ZM57.4934 12.764C57.4934 12.008 57.4421 11.3687 57.3394 10.846C57.2461 10.3233 57.0501 9.89867 56.7514 9.572C56.4527 9.236 56.0094 9.068 55.4214 9.068C54.8334 9.068 54.3901 9.236 54.0914 9.572C53.7927 9.89867 53.5921 10.3233 53.4894 10.846C53.3961 11.3687 53.3494 12.008 53.3494 12.764C53.3494 13.548 53.3961 14.206 53.4894 14.738C53.5827 15.27 53.7787 15.6993 54.0774 16.026C54.3854 16.3527 54.8334 16.516 55.4214 16.516C56.0094 16.516 56.4527 16.3527 56.7514 16.026C57.0594 15.6993 57.2601 15.27 57.3534 14.738C57.4467 14.206 57.4934 13.548 57.4934 12.764ZM60.4982 10.258C60.4982 9.57667 60.6942 9.04467 61.0862 8.662C61.4875 8.27 62.0008 8.074 62.6262 8.074C63.2515 8.074 63.7602 8.27 64.1522 8.662C64.5535 9.04467 64.7542 9.57667 64.7542 10.258C64.7542 10.9393 64.5535 11.476 64.1522 11.868C63.7602 12.26 63.2515 12.456 62.6262 12.456C62.0008 12.456 61.4875 12.26 61.0862 11.868C60.6942 11.476 60.4982 10.9393 60.4982 10.258ZM69.0382 8.256L63.4522 18H61.8842L67.4702 8.256H69.0382ZM62.6262 9.04C62.0382 9.04 61.7442 9.446 61.7442 10.258C61.7442 11.0793 62.0382 11.49 62.6262 11.49C62.9062 11.49 63.1208 11.392 63.2702 11.196C63.4288 10.9907 63.5082 10.678 63.5082 10.258C63.5082 9.446 63.2142 9.04 62.6262 9.04ZM66.1962 15.984C66.1962 15.3027 66.3922 14.7707 66.7842 14.388C67.1855 13.996 67.6988 13.8 68.3242 13.8C68.9402 13.8 69.4442 13.996 69.8362 14.388C70.2375 14.7707 70.4382 15.3027 70.4382 15.984C70.4382 16.6653 70.2375 17.202 69.8362 17.594C69.4442 17.986 68.9402 18.182 68.3242 18.182C67.6988 18.182 67.1855 17.986 66.7842 17.594C66.3922 17.202 66.1962 16.6653 66.1962 15.984ZM68.3102 14.766C67.7222 14.766 67.4282 15.172 67.4282 15.984C67.4282 16.796 67.7222 17.202 68.3102 17.202C68.8982 17.202 69.1922 16.796 69.1922 15.984C69.1922 15.172 68.8982 14.766 68.3102 14.766Z" fill="white"/>
</svg>
